<svg width="45" height="45" viewBox="0 0 45 45" fill="none" xmlns="http://www.w3.org/2000/svg">
<g clip-path="url(#clip0_748_1325)">
<path d="M24.3633 29.7493C24.286 27.6399 24.2227 26.0368 24.1313 25.5727C23.4844 22.2962 17.7469 20.8266 17.536 20.7774C17.1145 20.6272 16.7307 20.3873 16.411 20.0743C15.9858 19.5195 15.756 18.8397 15.757 18.1407C16.5878 17.2668 17.2104 16.2164 17.5781 15.068C17.7132 15.0682 17.847 15.042 17.9719 14.9907C18.4852 14.7657 18.8649 14.1188 19.111 13.0571C19.357 11.9954 19.2445 11.3837 18.8367 11.004C18.6638 10.8531 18.4468 10.7619 18.218 10.7438C18.4992 8.09305 18.7524 4.30321 13.7602 3.43836C12.7382 3.26957 11.6954 3.26957 10.6735 3.43836C5.68127 4.30321 5.93439 8.10008 6.21564 10.7438C5.98681 10.7619 5.76985 10.8531 5.59689 11.004C5.18205 11.3837 5.1047 12.0516 5.32267 13.0571C5.54064 14.0626 5.95549 14.7657 6.46877 14.9977C6.59298 15.0421 6.72361 15.0659 6.85549 15.068C7.21823 16.2155 7.83601 17.266 8.66252 18.1407C8.66253 18.8372 8.43817 19.5153 8.02267 20.0743C7.71767 20.3886 7.34491 20.6291 6.93283 20.7774C6.68674 20.8407 0.949236 22.3102 0.295329 25.5868C0.203923 26.0509 0.140642 27.8157 0.0703295 29.911C0.0422045 30.6563 1.69861e-05 31.2751 1.69861e-05 31.5704C-0.000887483 31.6643 0.0343592 31.7549 0.0984545 31.8235C0.129494 31.8582 0.167381 31.8861 0.209733 31.9055C0.252086 31.9249 0.297987 31.9353 0.344548 31.936H24.082C24.1307 31.9355 24.1788 31.9253 24.2235 31.906C24.2681 31.8867 24.3085 31.8586 24.3422 31.8235C24.3736 31.7896 24.3979 31.7497 24.4136 31.7062C24.4293 31.6628 24.4361 31.6166 24.4336 31.5704C24.4125 31.254 24.3914 30.5579 24.3633 29.7493ZM10.793 4.12742C11.7371 3.95872 12.7036 3.95872 13.6477 4.12742C17.0297 4.71102 17.6766 6.73602 17.6555 8.84539C12.2344 10.0548 9.3797 7.54461 9.35158 7.51649C9.31816 7.48435 9.27835 7.4596 9.23474 7.44385C9.19113 7.4281 9.1447 7.42171 9.09845 7.42508C9.05037 7.42888 9.00362 7.44274 8.96122 7.46575C8.91883 7.48876 8.88174 7.52042 8.85236 7.55867C8.30255 8.19405 7.58679 8.66392 6.78517 8.91571C6.75002 6.78524 7.36877 4.71805 10.793 4.12742ZM7.43205 14.5829C7.42101 14.5328 7.39796 14.4862 7.36489 14.447C7.33182 14.4078 7.28971 14.3772 7.2422 14.3579C7.19585 14.3364 7.14563 14.3244 7.09455 14.3227C7.03998 14.3215 6.98624 14.3362 6.93986 14.3649C6.90569 14.3807 6.86851 14.3889 6.83088 14.3889C6.79325 14.3889 6.75606 14.3807 6.72189 14.3649C6.5883 14.3016 6.25783 14.0345 6.01877 12.9165C5.79377 11.9251 6.01877 11.6227 6.07502 11.5102C6.14026 11.4691 6.21343 11.4423 6.28975 11.4314C6.36608 11.4205 6.44385 11.4258 6.51799 11.447C6.57248 11.464 6.63026 11.4678 6.68652 11.458C6.74278 11.4482 6.79588 11.4252 6.84142 11.3907C6.88654 11.3537 6.92173 11.306 6.94382 11.252C6.96592 11.198 6.97422 11.1394 6.96799 11.0813V10.9196C6.9258 10.4977 6.87658 10.0618 6.84845 9.62586C7.74074 9.37046 8.55047 8.88559 9.19689 8.21961C10.8531 9.34196 12.8223 9.91058 14.8219 9.84383C15.7887 9.83594 16.7523 9.72993 17.6977 9.52743C17.6977 9.99149 17.6203 10.4555 17.5711 10.9337V11.0884C17.5649 11.1464 17.5732 11.205 17.5953 11.2591C17.6174 11.3131 17.6526 11.3607 17.6977 11.3977C17.7437 11.4312 17.7968 11.4536 17.8529 11.4634C17.9089 11.4731 17.9665 11.4699 18.0211 11.454C18.0211 11.454 18.3094 11.3766 18.457 11.5173C18.6047 11.6579 18.7453 11.904 18.5203 12.9235C18.2742 14.0415 17.9297 14.3298 17.8172 14.372C17.7518 14.3982 17.6787 14.3982 17.6133 14.372C17.5653 14.3478 17.5123 14.3353 17.4586 14.3353C17.4049 14.3353 17.3519 14.3478 17.3039 14.372C17.2545 14.3926 17.2105 14.4242 17.1751 14.4644C17.1398 14.5046 17.1141 14.5523 17.1 14.604C17.1 14.604 16.3969 17.4165 14.1117 18.647C13.5623 18.9448 12.9472 19.1008 12.3223 19.1008C11.6973 19.1008 11.0822 18.9448 10.5328 18.647C8.12814 17.3954 7.43908 14.611 7.43205 14.5829ZM8.52189 20.5524C8.9601 20.0307 9.22978 19.3884 9.29533 18.7102C9.55178 18.9053 9.82201 19.0816 10.1039 19.2376C10.7524 19.5859 11.4771 19.7682 12.2133 19.7682C12.9495 19.7682 13.6741 19.5859 14.3227 19.2376C14.5978 19.0904 14.859 18.9186 15.1031 18.7243C15.1828 19.4082 15.4615 20.0536 15.9047 20.5805C15.9047 20.5805 15.9469 20.6157 15.961 20.6368L12.2063 22.7462L8.43752 20.6368L8.52189 20.5524ZM20.2992 31.2399V27.1337C20.3002 27.0878 20.292 27.0423 20.2751 26.9997C20.2582 26.9571 20.2329 26.9182 20.2008 26.8855C20.1688 26.8528 20.1305 26.8267 20.0882 26.809C20.0459 26.7912 20.0005 26.7821 19.9547 26.7821C19.8615 26.7821 19.772 26.8192 19.7061 26.8851C19.6402 26.951 19.6031 27.0404 19.6031 27.1337V31.2399H4.83752V27.1337C4.83845 27.0878 4.83023 27.0423 4.81334 26.9997C4.79644 26.9571 4.77121 26.9182 4.73913 26.8855C4.70704 26.8528 4.66874 26.8267 4.62648 26.809C4.58421 26.7912 4.53883 26.7821 4.49299 26.7821C4.44714 26.7821 4.40176 26.7912 4.35949 26.809C4.31723 26.8267 4.27893 26.8528 4.24685 26.8855C4.21476 26.9182 4.18953 26.9571 4.17263 26.9997C4.15574 27.0423 4.14752 27.0878 4.14845 27.1337V31.2399H0.703142C0.703142 30.9095 0.703142 30.4454 0.745329 29.9321C0.801579 28.4345 0.871892 26.1704 0.97033 25.7134C1.53986 22.9009 7.0383 21.4524 7.1297 21.4243C7.37338 21.3323 7.60863 21.2194 7.83283 21.0868L12.0516 23.4563C12.1041 23.4896 12.1652 23.5068 12.2274 23.5055C12.2851 23.5066 12.3417 23.4894 12.3891 23.4563L16.6078 21.0938C16.8451 21.2266 17.0919 21.3418 17.3461 21.4384C17.4024 21.4384 22.9078 22.8446 23.4774 25.7204C23.5688 26.1634 23.6391 28.2516 23.6883 29.7845C23.6883 30.361 23.7235 30.8813 23.7445 31.247L20.2992 31.2399Z" fill="#2A2F63"/>
<path d="M20.2992 31.2398V27.1335C20.3002 27.0877 20.2919 27.0422 20.275 26.9995C20.2581 26.9569 20.2329 26.9181 20.2008 26.8854C20.1687 26.8526 20.1304 26.8266 20.0882 26.8089C20.0459 26.7911 20.0005 26.782 19.9547 26.782C19.8614 26.782 19.772 26.819 19.7061 26.885C19.6402 26.9509 19.6031 27.0403 19.6031 27.1335V31.2398H4.8375V27.1335C4.83844 27.0877 4.83021 27.0422 4.81332 26.9995C4.79643 26.9569 4.7712 26.9181 4.73911 26.8854C4.70702 26.8526 4.66873 26.8266 4.62646 26.8089C4.58419 26.7911 4.53881 26.782 4.49297 26.782C4.44713 26.782 4.40174 26.7911 4.35948 26.8089C4.31721 26.8266 4.27891 26.8526 4.24683 26.8854C4.21474 26.9181 4.18951 26.9569 4.17262 26.9995C4.15572 27.0422 4.1475 27.0877 4.14844 27.1335V31.2398H0.703125C0.703125 30.9093 0.703125 30.4453 0.745312 29.932C0.801562 28.4343 0.871875 26.1703 0.970312 25.7132C1.53984 22.9007 7.03828 21.4523 7.12969 21.4242C7.37336 21.3322 7.60861 21.2192 7.83281 21.0867L12.0516 23.4562C12.104 23.4895 12.1652 23.5066 12.2273 23.5054C12.2851 23.5065 12.3417 23.4892 12.3891 23.4562L16.6078 21.0937C16.8451 21.2265 17.0919 21.3417 17.3461 21.4382C17.4023 21.4382 22.9078 22.8445 23.4773 25.7203C23.5687 26.1632 23.6391 28.2515 23.6883 29.7843C23.6883 30.3609 23.7234 30.8812 23.7445 31.2468L20.2992 31.2398Z" fill="#47B28E"/>
<path d="M23.7234 31.2398H22.275C22.275 30.8742 22.275 30.3539 22.2257 29.7773C22.1765 28.2445 22.1132 26.1562 22.0359 25.7132C21.5367 22.8585 16.7343 21.4453 16.6851 21.4312C16.5546 21.3788 16.4278 21.3177 16.3054 21.2484L16.5867 21.0867C16.824 21.2195 17.0707 21.3346 17.325 21.4312C17.3812 21.4312 22.8867 22.8375 23.4562 25.7132C23.5476 26.1562 23.6179 28.2445 23.6671 29.7773C23.6882 30.3539 23.7023 30.8742 23.7234 31.2398Z" fill="#53BF9F"/>
<path d="M8.13516 21.2413C8.02159 21.3069 7.90419 21.3656 7.78359 21.4171C7.69922 21.4171 2.89688 22.8655 2.39766 25.7062C2.31328 26.1702 2.25 28.4343 2.20078 29.9249C2.20078 30.4382 2.20078 30.9022 2.20078 31.2327H0.703125C0.703125 30.9022 0.703125 30.4382 0.745312 29.9249C0.801562 28.4272 0.871875 26.1632 0.970312 25.7062C1.53984 22.8937 7.03828 21.4452 7.12969 21.4171C7.37336 21.3251 7.60861 21.2122 7.83281 21.0796L8.13516 21.2413Z" fill="#3BA580"/>
<path d="M17.6554 8.84523C12.2343 10.0546 9.3796 7.54445 9.35148 7.51632C9.31806 7.48418 9.27825 7.45943 9.23464 7.44369C9.19103 7.42794 9.14459 7.42154 9.09835 7.42492C9.05026 7.42872 9.00351 7.44257 8.96112 7.46559C8.91873 7.4886 8.88164 7.52026 8.85226 7.55851C8.30245 8.19389 7.58669 8.66375 6.78507 8.91554C6.74991 6.80617 7.36866 4.69679 10.7929 4.12726C11.737 3.95856 12.7035 3.95856 13.6476 4.12726C17.0296 4.71085 17.6765 6.73585 17.6554 8.84523Z" fill="#CADEE5"/>
<path d="M15.9751 20.6366L12.2204 22.746L8.45166 20.6366L8.52197 20.5663C8.96018 20.0446 9.22986 19.4023 9.29541 18.7241C9.55186 18.9192 9.82209 19.0954 10.104 19.2515C10.7525 19.5998 11.4772 19.7821 12.2134 19.7821C12.9495 19.7821 13.6742 19.5998 14.3228 19.2515C14.5979 19.1043 14.8591 18.9325 15.1032 18.7382C15.1829 19.4221 15.4616 20.0675 15.9048 20.5944C15.9048 20.5944 15.961 20.6155 15.9751 20.6366Z" fill="#E9C992"/>
<path d="M18.4289 12.9023C18.1828 14.0203 17.8383 14.3085 17.7258 14.3507C17.6604 14.3769 17.5874 14.3769 17.5219 14.3507C17.4739 14.3266 17.4209 14.3141 17.3672 14.3141C17.3135 14.3141 17.2605 14.3266 17.2125 14.3507C17.1631 14.3713 17.1191 14.4029 17.0837 14.4432C17.0484 14.4834 17.0227 14.5311 17.0086 14.5828C17.0086 14.5828 16.3055 17.3953 14.0204 18.6257C13.4709 18.9236 12.8559 19.0796 12.2309 19.0796C11.6059 19.0796 10.9909 18.9236 10.4414 18.6257C8.14223 17.3953 7.45316 14.6109 7.44613 14.5828C7.43509 14.5327 7.41204 14.486 7.37897 14.4468C7.3459 14.4076 7.3038 14.3771 7.25629 14.3578C7.20994 14.3362 7.15971 14.3243 7.10863 14.3226C7.05407 14.3214 7.00032 14.336 6.95394 14.3648C6.91977 14.3806 6.88259 14.3887 6.84496 14.3887C6.80733 14.3887 6.77015 14.3806 6.73598 14.3648C6.60238 14.3015 6.27191 14.0343 6.03285 12.9164C5.80785 11.925 6.03285 11.6226 6.0891 11.5101C6.15434 11.469 6.22751 11.4421 6.30384 11.4312C6.38016 11.4203 6.45793 11.4256 6.53207 11.4468C6.58656 11.4639 6.64435 11.4677 6.7006 11.4579C6.75686 11.4481 6.80997 11.425 6.85551 11.3906C6.90062 11.3536 6.93581 11.3059 6.95791 11.2519C6.98 11.1979 6.98831 11.1392 6.98207 11.0812V10.9195C6.93988 10.4976 6.89066 10.0617 6.86254 9.62573C7.75482 9.37033 8.56455 8.88546 9.21098 8.21948C10.8672 9.34183 12.8364 9.91045 14.836 9.8437C15.8028 9.83581 16.7663 9.7298 17.7118 9.5273C17.7118 9.99136 17.6344 10.4554 17.5852 10.9335V11.0882C17.579 11.1463 17.5873 11.2049 17.6094 11.2589C17.6314 11.3129 17.6666 11.3606 17.7118 11.3976C17.7578 11.4311 17.8109 11.4535 17.8669 11.4633C17.923 11.473 17.9806 11.4698 18.0352 11.4539C18.0352 11.4539 18.3235 11.3765 18.4711 11.5171C18.6188 11.6578 18.6539 11.9039 18.4289 12.9023Z" fill="#F4D398"/>
<path d="M11.9882 19.0688C11.4414 19.0393 10.9081 18.8879 10.4273 18.6259C8.12806 17.3954 7.439 14.611 7.43197 14.5829C7.42093 14.5328 7.39788 14.4862 7.36481 14.447C7.33174 14.4078 7.28964 14.3772 7.24213 14.3579C7.19578 14.3364 7.14555 14.3244 7.09447 14.3228C7.03991 14.3215 6.98616 14.3362 6.93978 14.3649C6.90561 14.3807 6.86843 14.3889 6.8308 14.3889C6.79317 14.3889 6.75598 14.3807 6.72181 14.3649C6.58822 14.3017 6.25775 14.0345 6.01869 12.9165C5.79369 11.9251 6.01869 11.6228 6.07494 11.5103C6.14018 11.4692 6.21335 11.4423 6.28968 11.4314C6.366 11.4205 6.44377 11.4258 6.51791 11.447C6.5724 11.464 6.63018 11.4678 6.68644 11.458C6.7427 11.4483 6.79581 11.4252 6.84135 11.3907C6.88646 11.3537 6.92165 11.306 6.94375 11.252C6.96584 11.198 6.97415 11.1394 6.96791 11.0813V10.9196C6.92572 10.4978 6.8765 10.0618 6.84838 9.62588C7.14667 9.54396 7.43631 9.43328 7.71322 9.29541C7.71322 9.89307 7.81869 10.5751 7.84681 10.9196V11.0813C7.85196 11.1374 7.84522 11.194 7.82705 11.2473C7.80888 11.3006 7.77968 11.3495 7.74135 11.3907C7.70531 11.4245 7.6606 11.4477 7.61219 11.4576C7.56378 11.4676 7.51357 11.4639 7.46713 11.447C7.40469 11.4254 7.33783 11.4199 7.27271 11.431C7.20759 11.442 7.14629 11.4693 7.09447 11.5103C7.01713 11.6017 6.86947 11.904 7.05228 12.9165C7.26322 14.0345 7.53744 14.3228 7.64994 14.3649C7.67773 14.381 7.70926 14.3894 7.74135 14.3894C7.77344 14.3894 7.80496 14.381 7.83275 14.3649C7.8697 14.3384 7.91383 14.3237 7.95931 14.3228C8.00364 14.3246 8.04696 14.3366 8.08588 14.3579C8.12722 14.3818 8.16301 14.4143 8.19089 14.453C8.21877 14.4918 8.2381 14.5361 8.2476 14.5829C8.2476 14.5829 8.81713 17.3954 10.7367 18.6259C11.1107 18.8749 11.5408 19.0271 11.9882 19.0688V19.0688Z" fill="#E9C992"/>
<path d="M7.73429 8.51484C7.44361 8.67834 7.13742 8.81259 6.82023 8.91562C6.78507 6.80625 7.40382 4.69687 10.828 4.12734C11.1996 4.05971 11.5756 4.01976 11.953 4.00781C11.6503 4.02334 11.3493 4.06331 11.053 4.12734C8.35304 4.68281 7.73429 6.525 7.73429 8.51484Z" fill="#BCD2D8"/>
<path d="M13.4086 4.12734C13.1147 4.06339 12.816 4.02341 12.5156 4.00781C12.8954 4.0198 13.2738 4.05975 13.6477 4.12734C17.0297 4.71094 17.6766 6.73594 17.6555 8.84531C17.3391 8.91563 17.0367 8.97188 16.7414 9.02109C16.7446 8.96254 16.7446 8.90386 16.7414 8.84531C16.7695 6.73594 16.2281 4.71094 13.4086 4.12734Z" fill="#D7E9F2"/>
<path d="M18.429 12.9024C18.1829 14.0204 17.8384 14.3087 17.7259 14.3509C17.6604 14.3771 17.5874 14.3771 17.522 14.3509C17.474 14.3268 17.421 14.3142 17.3673 14.3142C17.3136 14.3142 17.2606 14.3268 17.2126 14.3509C17.1632 14.3715 17.1191 14.4031 17.0838 14.4433C17.0485 14.4835 17.0228 14.5313 17.0087 14.5829C17.0087 14.5829 16.3056 17.3954 14.0204 18.6259C13.5403 18.8897 13.0066 19.0412 12.4595 19.0688C12.9118 19.0294 13.3469 18.8771 13.7251 18.6259C15.6235 17.3884 16.172 14.611 16.172 14.5829C16.1818 14.5344 16.2019 14.4885 16.231 14.4485C16.2602 14.4085 16.2976 14.3752 16.3407 14.3509C16.38 14.3273 16.425 14.3149 16.4708 14.3149C16.5166 14.3149 16.5616 14.3273 16.6009 14.3509C16.6271 14.3639 16.656 14.3707 16.6853 14.3707C16.7145 14.3707 16.7434 14.3639 16.7696 14.3509C16.8751 14.2876 17.1563 14.0204 17.3603 12.9024C17.5501 11.904 17.3954 11.6017 17.311 11.4962C17.2267 11.3907 16.9454 11.4329 16.9454 11.4329C16.8999 11.4484 16.8511 11.4514 16.8041 11.4415C16.7571 11.4316 16.7136 11.4092 16.6782 11.3767C16.6399 11.3354 16.6107 11.2865 16.5925 11.2332C16.5743 11.1799 16.5676 11.1234 16.5728 11.0673V10.9126C16.5728 10.6524 16.636 10.1673 16.6642 9.70322C16.9595 9.654 17.2688 9.60479 17.5782 9.5415C17.5782 10.0056 17.5009 10.4696 17.4517 10.9478V11.1024C17.4454 11.1605 17.4537 11.2191 17.4758 11.2731C17.4979 11.3271 17.5331 11.3748 17.5782 11.4118C17.6243 11.4453 17.6773 11.4677 17.7334 11.4775C17.7895 11.4872 17.847 11.484 17.9017 11.4681C17.9017 11.4681 18.1899 11.3907 18.3376 11.5313C18.4853 11.672 18.654 11.904 18.429 12.9024Z" fill="#FBDEA2"/>
<path d="M37.371 31.2398V29.9249L37.5257 29.7773C38.8402 30.4261 40.2792 30.7835 41.7445 30.8249H42.0609C42.1222 30.8176 42.1804 30.7942 42.2298 30.7572C42.2791 30.7201 42.3179 30.6708 42.3421 30.614C42.3665 30.556 42.3741 30.4923 42.3641 30.4302C42.3542 30.3681 42.3271 30.31 42.2859 30.2624C42.2085 30.171 40.4437 28.0335 41.5195 24.4265C42.2226 22.0781 41.7515 19.6242 40.3523 18.1757C40.0245 17.7935 39.6042 17.5017 39.1315 17.3281C38.6588 17.1546 38.1496 17.1051 37.6523 17.1843C36.6275 16.4442 35.3938 16.0494 34.1298 16.057C32.8657 16.0646 31.6369 16.4742 30.621 17.2265C29.4839 18.0427 28.6252 19.1887 28.1611 20.5093C27.697 21.8299 27.65 23.2612 28.0265 24.6093C28.3388 25.5103 28.3951 26.4802 28.189 27.4112C27.983 28.3422 27.5227 29.1978 26.8593 29.8828C26.8147 29.9284 26.7823 29.9845 26.7651 30.0459C26.7479 30.1074 26.7464 30.1722 26.7609 30.2343C26.7763 30.2947 26.808 30.3497 26.8527 30.3931C26.8974 30.4365 26.9532 30.4668 27.014 30.4804C28.6536 30.75 30.3364 30.5043 31.8304 29.7773L31.9851 29.9249V31.2398C27.3375 31.3874 24.3562 34.4038 24.3562 39.0374V41.3437C24.3562 41.4351 24.3925 41.5227 24.4571 41.5873C24.5217 41.6519 24.6094 41.6882 24.7007 41.6882H44.6554C44.7468 41.6882 44.8344 41.6519 44.899 41.5873C44.9637 41.5227 45 41.4351 45 41.3437V39.0374C45 34.4038 42.0187 31.3874 37.371 31.2398ZM27.7875 29.8828C28.3755 29.1082 28.7644 28.2012 28.9201 27.2413C29.0758 26.2814 28.9935 25.298 28.6804 24.3773C28.3654 23.1684 28.4193 21.893 28.8354 20.7151C29.2514 19.5372 30.0104 18.5107 31.0148 17.7679C31.9389 17.0807 33.0625 16.7148 34.2141 16.7262C35.3657 16.7377 36.4819 17.1257 37.3921 17.8312C37.4313 17.8593 37.4762 17.8783 37.5237 17.8868C37.5711 17.8954 37.6199 17.8932 37.6664 17.8804C38.0654 17.797 38.4797 17.8236 38.8649 17.9573C39.25 18.0911 39.5916 18.327 39.8531 18.6398C40.4908 19.4016 40.9185 20.3169 41.0936 21.2949C41.2687 22.2729 41.1853 23.2797 40.8515 24.2156C40.5226 25.1818 40.3983 26.2059 40.4867 27.2227C40.575 28.2395 40.8741 29.2268 41.3648 30.1218C40.2039 30.0232 39.069 29.7234 38.0109 29.2359C38.9768 27.934 39.4859 26.3497 39.4593 24.7288C39.4887 23.0441 38.9375 21.4006 37.8984 20.0742C37.8632 20.031 37.8177 19.9974 37.7661 19.9765C37.7145 19.9556 37.6584 19.9481 37.6031 19.9546C37.5485 19.9568 37.4954 19.9728 37.4487 20.0011C37.4019 20.0294 37.3631 20.069 37.3359 20.1163C36.1687 22.0921 34.8187 22.2257 33.3984 22.3312C32.2453 22.4367 31.057 22.5492 30.0375 23.6531C29.9894 23.7062 29.9576 23.7722 29.946 23.8429C29.9136 24.1371 29.8972 24.4329 29.8968 24.7288C29.8622 26.3443 30.356 27.9268 31.3031 29.2359C30.1954 29.7153 28.9932 29.9365 27.7875 29.8828V29.8828ZM30.6 24.7288C30.5875 24.4946 30.5875 24.2599 30.6 24.0257C31.4156 23.189 32.3578 23.1046 33.4125 23.0132C34.7765 22.8867 36.3093 22.7531 37.6312 20.9038C38.3793 22.0404 38.7687 23.3754 38.7492 24.7359C38.7492 27.8296 36.907 30.3609 34.657 30.3609C32.407 30.3609 30.5859 27.8226 30.5859 24.7288H30.6ZM36.689 30.4382V31.5773C36.689 32.871 35.6625 33.3281 34.6921 33.3281C33.7218 33.3281 32.6882 32.871 32.6882 31.5773V30.4382C33.2843 30.8236 33.9789 31.0286 34.6886 31.0286C35.3984 31.0286 36.093 30.8236 36.689 30.4382V30.4382ZM44.2968 40.9992H41.5546V37.5679C41.5546 37.4747 41.5176 37.3853 41.4517 37.3193C41.3857 37.2534 41.2963 37.2163 41.2031 37.2163C41.1098 37.2163 41.0204 37.2534 40.9545 37.3193C40.8886 37.3853 40.8515 37.4747 40.8515 37.5679V40.9992H28.4765V37.5679C28.4765 37.4747 28.4395 37.3853 28.3735 37.3193C28.3076 37.2534 28.2182 37.2163 28.125 37.2163C28.0317 37.2163 27.9423 37.2534 27.8764 37.3193C27.8104 37.3853 27.7734 37.4747 27.7734 37.5679V40.9992H25.0453V39.0374C25.0453 34.7554 27.7101 32.0624 32.0203 31.9359C32.103 32.5636 32.4265 33.1346 32.9224 33.5282C33.4184 33.9219 34.048 34.1072 34.6781 34.0453C36.1757 34.0453 37.1742 33.2367 37.3359 31.9359C41.639 32.0624 44.3109 34.7484 44.3109 39.0374L44.2968 40.9992Z" fill="#2A2F63"/>
<path d="M38.011 29.236C38.9769 27.9341 39.4861 26.3498 39.4595 24.729C39.4888 23.0442 38.9377 21.4007 37.8985 20.0743C37.8634 20.0311 37.8179 19.9975 37.7662 19.9766C37.7146 19.9557 37.6585 19.9482 37.6032 19.9547C37.5487 19.9569 37.4955 19.9729 37.4488 20.0012C37.4021 20.0295 37.3633 20.0691 37.336 20.1165C36.1688 22.0922 34.8188 22.2258 33.3985 22.3313C32.2454 22.4368 31.0571 22.5493 30.0376 23.6532C29.9895 23.7063 29.9578 23.7723 29.9462 23.843C29.9138 24.1372 29.8973 24.433 29.897 24.729C29.8624 26.3444 30.3561 27.9269 31.3032 29.236C30.1956 29.7154 28.9934 29.9366 27.7876 29.8829C28.3756 29.1083 28.7646 28.2013 28.9202 27.2414C29.0759 26.2815 28.9936 25.2981 28.6806 24.3774C28.3655 23.1686 28.4195 21.8931 28.8355 20.7152C29.2515 19.5373 30.0106 18.5109 31.0149 17.768C31.939 17.0808 33.0627 16.7149 34.2143 16.7263C35.3658 16.7378 36.482 17.1258 37.3923 17.8313C37.4314 17.8594 37.4764 17.8784 37.5238 17.8869C37.5713 17.8955 37.62 17.8933 37.6665 17.8805C38.0656 17.7971 38.4799 17.8237 38.865 17.9574C39.2502 18.0912 39.5917 18.3271 39.8532 18.6399C40.491 19.4018 40.9186 20.317 41.0937 21.295C41.2689 22.273 41.1854 23.2798 40.8517 24.2157C40.5227 25.1819 40.3985 26.206 40.4868 27.2228C40.5752 28.2396 40.8742 29.227 41.3649 30.1219C40.2041 30.0233 39.0692 29.7235 38.011 29.236V29.236Z" fill="#A0D2F1"/>
<path d="M44.297 39.0376V40.9993H41.5548V37.5681C41.5548 37.4748 41.5177 37.3854 41.4518 37.3195C41.3859 37.2535 41.2965 37.2165 41.2032 37.2165C41.11 37.2165 41.0206 37.2535 40.9546 37.3195C40.8887 37.3854 40.8517 37.4748 40.8517 37.5681V40.9993H28.4767V37.5681C28.4767 37.4748 28.4396 37.3854 28.3737 37.3195C28.3078 37.2535 28.2183 37.2165 28.1251 37.2165C28.0319 37.2165 27.9424 37.2535 27.8765 37.3195C27.8106 37.3854 27.7735 37.4748 27.7735 37.5681V40.9993H25.0454V39.0376C25.0454 34.7556 27.7103 32.0626 32.0204 31.936C32.1031 32.5638 32.4266 33.1348 32.9226 33.5284C33.4185 33.922 34.0481 34.1074 34.6782 34.0454C36.1759 34.0454 37.1743 33.2368 37.336 31.936C41.6392 32.0626 44.297 34.7556 44.297 39.0376Z" fill="#EA625C"/>
<path d="M32.0274 31.9642C28.6595 32.2735 26.5993 34.9243 26.5993 39.0376V40.9993H25.0454V39.0376C25.0454 34.7556 27.7103 32.0626 32.0204 31.936C32.0194 31.9459 32.0218 31.9559 32.0274 31.9642V31.9642Z" fill="#E15E5A"/>
<path d="M44.2968 39.0375V40.9993H42.757V39.0375C42.757 34.9243 40.6968 32.2735 37.3289 31.9641C41.639 32.0625 44.2968 34.7555 44.2968 39.0375Z" fill="#F26E61"/>
<path d="M36.6751 30.4382V31.5773C36.6751 32.871 35.6485 33.3281 34.6782 33.3281C33.7079 33.3281 32.6743 32.871 32.6743 31.5773V30.4382C33.2703 30.8236 33.965 31.0286 34.6747 31.0286C35.3844 31.0286 36.0791 30.8236 36.6751 30.4382V30.4382Z" fill="#E9C992"/>
<path d="M38.7704 24.7288C38.7704 27.8226 36.9282 30.3538 34.6782 30.3538C32.4282 30.3538 30.586 27.8437 30.586 24.7288C30.5735 24.4946 30.5735 24.2599 30.586 24.0257C31.4016 23.189 32.3438 23.1046 33.3985 23.0132C34.7626 22.8866 36.2954 22.753 37.6173 20.9038C38.3764 22.0344 38.7782 23.367 38.7704 24.7288V24.7288Z" fill="#F4D398"/>
<path d="M38.7703 24.729C38.7703 27.7454 37.0195 30.2204 34.8398 30.354C36.5133 30.2063 37.9898 27.7876 37.9898 24.7853C37.967 23.631 37.7211 22.4922 37.2656 21.4313C37.4223 21.2665 37.5635 21.0876 37.6875 20.897C38.4232 22.0374 38.8003 23.3722 38.7703 24.729Z" fill="#FBDEA2"/>
<path d="M34.5165 30.3257C32.3298 30.2203 30.586 27.7453 30.586 24.7007C30.5735 24.4665 30.5735 24.2318 30.586 23.9976C30.8873 23.714 31.2474 23.5003 31.6407 23.3718C31.5617 23.8197 31.5264 24.2742 31.5352 24.7289C31.5071 27.7242 32.836 30.1781 34.5165 30.3257Z" fill="#E9C992"/>
</g>
<defs>
<clipPath id="clip0_748_1325">
<rect width="45" height="45" fill="white"/>
</clipPath>
</defs>
</svg>
