<svg width="45" height="45" viewBox="0 0 45 45" fill="none" xmlns="http://www.w3.org/2000/svg">
<g clip-path="url(#clip0_748_1352)">
<path d="M20.6719 14.1327C20.25 13.5702 19.8984 12.8671 19.6875 12.2343C20.6016 12.6562 21.5156 12.7968 22.2891 12.7968H22.5703C22.0078 13.3593 21.375 13.8515 20.6719 14.1327ZM23.4141 11.3202C22.7109 11.4609 20.7422 11.7421 19.0547 10.2656C18.9141 9.42181 18.8438 8.71868 18.7734 8.2265L23.5547 7.73431C23.6953 8.2265 23.7656 8.71868 23.7656 9.28118C23.8359 9.98431 23.6953 10.6874 23.4141 11.3202ZM19.2656 14.5546C18.9844 14.6249 18.7031 14.6249 18.4219 14.6249C15.4688 14.6249 13.0078 12.2343 13.0078 9.21087V8.71868L17.3672 8.29681C17.5078 9.63275 17.8594 12.3749 19.2656 14.5546ZM12.3047 7.45306C12.3047 6.04681 12.7969 4.71087 13.7109 3.58587C14.6953 2.32025 16.1719 1.54681 17.8594 1.40618H18.4922C19.8984 1.40618 21.3047 1.89837 22.4297 2.81243C23.5547 3.7265 24.2578 4.92181 24.5391 6.32806L12.3047 7.45306ZM8.71875 43.664C4.92187 43.664 1.89844 40.5702 1.89844 36.8437C1.89844 33.0468 4.99219 30.0234 8.71875 30.0234C10.2656 30.0234 11.6719 30.5156 12.7969 31.3593C10.6172 32.9062 9 34.664 8.08594 36.5624C8.01562 36.7734 8.01562 37.0546 8.15625 37.1952C8.29688 37.4062 8.50781 37.5468 8.71875 37.5468H15.5391C15.2578 40.9218 12.3047 43.664 8.71875 43.664ZM9.91406 36.0702C10.8281 34.664 12.0938 33.3984 13.8516 32.2031C14.7656 33.2577 15.3984 34.5937 15.5391 36.0702H9.91406ZM17.3672 36.0702H16.9453C16.8047 34.3124 16.1016 32.6952 15.0469 31.4296C16.0312 30.7968 17.1562 30.2343 18.3516 29.7421L18 33.9609C18 34.1718 18.0703 34.3827 18.2812 34.5234C18.4922 34.664 18.7031 34.7343 18.9141 34.664H19.0547C18.2109 35.2968 17.6484 35.8593 17.3672 36.0702ZM25.2422 35.6484C25.4531 35.9296 25.5234 36.2812 25.5234 36.4921L20.6719 36.1406V33.6093C20.6719 33.3984 20.6016 33.1874 20.3906 33.0468C20.25 32.9062 19.9688 32.9062 19.7578 32.9062L19.3359 33.0468L19.6172 29.2499C19.6172 28.8984 19.4062 28.6171 19.0547 28.5468C19.0547 28.5468 18.7734 28.4765 18.3516 28.3359C17.6484 28.1249 16.3125 27.4218 15.4688 26.5077L20.1797 24.4687L22.9219 25.7343V34.0312C22.9219 34.3827 23.1328 34.664 23.4844 34.664C24.3281 34.8749 24.8906 35.2265 25.2422 35.6484ZM23.9062 24.6796L21.8672 23.7656L23.0625 23.2734H27.2109C27.7734 23.2734 28.2656 23.0624 28.6875 22.7109H30.3047L30.2344 24.7499C29.25 24.9609 27 25.3827 24.2578 26.1562V25.3124C24.3281 25.1015 24.1172 24.8202 23.9062 24.6796ZM24.3281 30.3749V27.6327C27.0703 26.8593 29.3906 26.3671 30.4453 26.1562C30.5156 26.2968 30.5156 26.4374 30.5859 26.6484C28.6875 27.4218 26.5781 28.6874 24.3281 30.3749ZM36.2812 43.664C32.4844 43.664 29.4609 40.5702 29.4609 36.8437C29.4609 34.4531 30.7266 32.2734 32.625 31.0781C34.3828 34.3827 36.4922 37.5468 36.6328 37.6874C36.7734 37.8984 36.9844 37.9687 37.1953 37.9687C37.3359 37.9687 37.4766 37.8984 37.5469 37.8281C37.8984 37.6171 37.9688 37.1952 37.7578 36.914C37.7578 36.8437 35.5781 33.6796 33.8203 30.4452C34.5938 30.164 35.4375 29.9531 36.2812 29.9531C40.0781 29.9531 43.1016 33.0468 43.1016 36.7734C43.1016 40.5702 40.0078 43.664 36.2812 43.664ZM36.2812 28.5468C35.1562 28.5468 34.1719 28.7577 33.1875 29.1796C32.7656 28.3359 32.4141 27.4921 32.1328 26.7187C31.9219 26.1562 31.7812 25.664 31.7109 25.2421L31.7813 22.0077C31.7813 21.7968 31.7109 21.6562 31.5703 21.5156C31.4297 21.3749 31.2891 21.3046 31.0781 21.3046H29.3906V21.164C29.3906 20.039 28.5469 19.1952 27.2812 19.0546H26.7188C25.9453 18.9843 25.2422 18.9843 24.6094 18.5624C24.5391 18.5624 22.6406 17.2968 21.8672 16.8046V15.0468C22.9922 14.3437 23.9062 13.3593 24.4688 12.2343C24.4688 12.2343 24.4688 12.164 24.5391 12.164C24.9609 11.3202 25.1719 10.3359 25.1719 9.28118C25.1719 8.71868 25.1016 8.15618 24.9609 7.59368L25.3125 7.52337C25.5234 7.52337 25.6641 7.38275 25.8047 7.31243C25.9453 7.17181 25.9453 6.96087 25.9453 6.82025C25.7344 4.78118 24.75 3.02337 23.2031 1.75775C21.6562 0.492121 19.6875 -0.140691 17.6484 0.0702462C15.6797 0.281184 13.8516 1.26556 12.5859 2.81243C11.3203 4.35931 10.6875 6.32806 10.8984 8.36712C10.9688 8.71868 11.25 8.99993 11.6016 8.99993H11.6719V9.3515C11.6719 10.6171 12.0234 11.8827 12.6563 12.8671L10.1953 14.3437C9.77344 14.5546 9.5625 15.0468 9.5625 15.539V17.789C9.5625 18.2109 9.77344 18.6327 10.125 18.8437C10.4766 19.1249 10.8984 19.1952 11.3203 19.1249L11.6016 19.0546V26.2265C11.6016 26.7187 11.8125 27.1406 12.2344 27.3515C12.4453 27.4921 12.7266 27.5624 13.0078 27.5624C13.2188 27.5624 13.3594 27.5624 13.5703 27.4218L14.2734 27.0702C14.9062 27.914 15.8906 28.6171 16.7344 29.039C15.8203 29.4609 14.9766 29.9531 14.2031 30.4452C12.7969 29.2499 10.9688 28.5468 8.92969 28.5468C4.21875 28.5468 0.5625 32.2734 0.5625 36.7734C0.5625 41.3437 4.21875 44.9999 8.71875 44.9999C13.0078 44.9999 16.5234 41.6952 16.875 37.4765H17.5781C17.7188 37.4765 17.9297 37.4062 18.0703 37.2656C18.0703 37.2656 18.4922 36.8437 19.2656 36.1406V36.7734C19.2656 37.1249 19.5469 37.4062 19.8984 37.4765L26.0859 37.9687H26.1563C26.5078 37.9687 26.7188 37.7577 26.7891 37.4062C26.7891 37.3359 27.0703 36.0702 26.2969 34.9452C25.875 34.2421 25.1719 33.8202 24.2578 33.539V32.0624C26.7188 30.164 29.0391 28.7577 31.0078 27.914C31.2891 28.5468 31.5703 29.1796 31.9219 29.8827C29.6016 31.3593 27.9844 33.8906 27.9844 36.8437C27.9844 41.3437 31.6406 45.0702 36.2109 45.0702C40.7109 45.0702 44.4375 41.414 44.4375 36.8437C44.4375 32.2734 40.7812 28.5468 36.2812 28.5468ZM25.2422 21.9374H23.2031L20.4609 19.2656C20.1797 18.9843 19.7578 18.9843 19.4766 19.2656C19.1953 19.5468 19.1953 19.9687 19.4766 20.2499L21.6562 22.3593L12.7969 26.1562V18.4921L14.9063 17.1562C15.1875 16.9452 15.3281 16.5234 15.1172 16.2421C14.9063 15.8906 14.4844 15.8202 14.2031 16.0312L11.8828 17.5077L10.8984 17.789V15.4687L13.5 13.9218C14.6953 15.2577 16.4531 16.0312 18.4219 16.0312C19.125 16.0312 19.8281 15.8906 20.4609 15.6796V17.1562C20.4609 17.3671 20.6016 17.5781 20.7422 17.7187C23.1328 19.2656 23.6953 19.6171 23.8359 19.6874C24.5391 20.1093 25.2422 20.2499 25.875 20.3202L25.2422 21.9374ZM27.2812 21.9374H26.7188L27.3516 20.4609C27.6328 20.5312 27.9844 20.7421 27.9844 21.164C28.0547 21.5859 27.7031 21.9374 27.2812 21.9374Z" fill="#2B2E63"/>
<path d="M28.0547 21.1641C28.0547 21.5859 27.7031 21.9375 27.2812 21.9375H26.7188L27.3516 20.4609C27.7031 20.5312 28.0547 20.6719 28.0547 21.1641Z" fill="#FFDC7C"/>
<path d="M19.2656 14.5547C18.9844 14.625 18.7031 14.625 18.4219 14.625C15.4688 14.625 13.0078 12.2344 13.0078 9.21094V8.71875L17.3672 8.29688C17.5078 9.63281 17.8594 12.375 19.2656 14.5547Z" fill="#F26E61"/>
<path d="M22.5 12.7969C22.0078 13.3594 21.375 13.8516 20.6719 14.1328C20.25 13.5703 19.8984 12.8672 19.6875 12.2344C20.6016 12.6562 21.5156 12.7969 22.2891 12.7969H22.5ZM23.625 7.73438L18.8438 8.22656C18.9141 8.71875 18.9141 9.42188 19.125 10.2656C20.7422 11.7422 22.7813 11.5313 23.4844 11.3203C23.7656 10.6875 23.9063 9.98437 23.9063 9.28125C23.8359 8.71875 23.7656 8.22656 23.625 7.73438ZM21.7969 9.98437C21.3047 9.98437 20.9531 9.5625 20.9531 9.14062C20.9531 8.64844 21.375 8.22656 21.7969 8.22656C22.2891 8.22656 22.7109 8.64844 22.7109 9.14062C22.7109 9.5625 22.2891 9.98437 21.7969 9.98437Z" fill="#FFE5AB"/>
<path d="M24.4688 6.25781L12.2344 7.45313C12.2344 6.04688 12.7266 4.71094 13.6406 3.58594C14.6953 2.32031 16.1719 1.54688 17.8594 1.40625H18.4922C19.8984 1.40625 21.3047 1.89844 22.4297 2.8125C23.4844 3.65625 24.1875 4.92187 24.4688 6.25781Z" fill="#F26E61"/>
<path d="M20.6719 36.1406V33.6094C20.6719 33.3984 20.6016 33.1875 20.3906 33.0469C20.25 32.9063 19.9688 32.9062 19.7578 32.9062L19.3359 33.0469L19.6172 29.25C19.6172 28.8984 19.4063 28.6172 19.0547 28.5469C19.0547 28.5469 18.7734 28.4766 18.3516 28.3359C17.6484 28.125 16.3125 27.4219 15.4688 26.5078L20.1797 24.4688L22.9219 25.7344V34.0313C22.9219 34.3828 23.1328 34.6641 23.4844 34.6641C24.3281 34.8047 24.8906 35.1563 25.1719 35.6484C25.3828 35.9297 25.4531 36.2813 25.4531 36.4922L20.6719 36.1406Z" fill="#D7E9F2"/>
<path d="M25.9453 20.3203L25.2422 21.8672H23.2031L20.4609 19.1953C20.1797 18.9141 19.7578 18.9141 19.4766 19.1953C19.1953 19.4766 19.1953 19.8984 19.4766 20.1797L21.6562 22.2891L12.7969 26.0859V18.4922L14.9063 17.1563C15.1875 16.9453 15.3281 16.5234 15.1172 16.2422C14.9062 15.8906 14.4844 15.8203 14.2031 16.0312L11.8828 17.5078L10.8984 17.7891V15.4688L13.5 13.9219C14.6953 15.2578 16.4531 16.0312 18.4219 16.0312C19.125 16.0312 19.8281 15.8906 20.4609 15.6797V17.1563C20.4609 17.3672 20.6016 17.5781 20.7422 17.7188C23.1328 19.2656 23.6953 19.6172 23.8359 19.6875C24.6094 20.1094 25.2422 20.25 25.9453 20.3203Z" fill="#4EBDE5"/>
<path d="M22.7109 9.14063C22.7109 9.63281 22.2891 9.98438 21.7969 9.98438C21.3047 9.98438 20.9531 9.5625 20.9531 9.14063C20.9531 8.64844 21.375 8.22656 21.7969 8.22656C22.2891 8.22656 22.7109 8.64844 22.7109 9.14063Z" fill="#2B2E63"/>
<path d="M22.5 12.7969C22.0078 13.3594 21.375 13.8516 20.6719 14.1328C20.6016 13.9922 20.4609 13.8516 20.3906 13.7109C20.9531 13.5 21.4453 13.1484 21.7969 12.7969H22.5ZM23.8359 9.28125C23.8359 9.98437 23.6953 10.6875 23.4141 11.3203C23.2734 11.3906 22.9922 11.3906 22.7109 11.3906L22.8516 10.6875C22.9922 10.1953 23.0625 9.77344 23.0625 9.28125C23.0625 9 23.0625 8.78906 22.9922 8.50781L22.8516 7.80469L23.4844 7.73438C23.7656 8.22656 23.8359 8.71875 23.8359 9.28125Z" fill="#F0D39A"/>
<path d="M24.4688 6.25781L23.7656 6.32812L23.5547 5.625C23.2031 4.71094 22.6406 3.9375 21.8672 3.30469C20.8828 2.53125 19.6875 2.03906 18.4219 2.03906H17.8594C16.3828 2.17969 15.1172 2.88281 14.1328 4.00781C13.5 4.78125 13.0781 5.625 12.9375 6.60937L12.8672 7.3125L12.1641 7.38281C12.1641 5.97656 12.6563 4.64062 13.5703 3.51562C14.6953 2.32031 16.1719 1.54688 17.8594 1.40625H18.4922C19.8984 1.40625 21.3047 1.89844 22.4297 2.8125C23.4844 3.65625 24.1875 4.92187 24.4688 6.25781ZM19.2656 14.5547C18.9844 14.625 18.7031 14.625 18.4219 14.625C15.4688 14.625 13.0078 12.2344 13.0078 9.21094V8.71875L13.6406 8.64844L13.7109 9.35156C13.7813 11.7422 15.6797 13.7109 18.0703 13.8516H18.8438C18.9844 14.1328 19.125 14.3438 19.2656 14.5547Z" fill="#E15E5A"/>
<path d="M14.1328 14.4141L11.6016 15.8203V17.5078L10.8984 17.7188V15.4688L13.5 13.9219C13.7109 14.0625 13.9219 14.2734 14.1328 14.4141ZM13.5703 18V25.875L12.8672 26.1563V18.4922L13.5703 18ZM25.9453 20.3203L25.5234 21.8672H24.8906L25.0312 20.8828C24.5391 20.8125 23.9766 20.6016 23.4844 20.25L20.3906 18.2813C19.9688 18 19.7578 17.5781 19.7578 17.0859V15.75C19.9688 15.6797 20.1797 15.6797 20.3906 15.5391V17.0156C20.3906 17.2266 20.5312 17.4375 20.7422 17.5781L23.9062 19.6875C24.6094 20.1797 25.3125 20.25 25.9453 20.3203Z" fill="#36A9DB"/>
<path d="M20.6719 36.1406V33.6094C20.6719 33.3984 20.6016 33.1875 20.3906 33.0469C20.25 32.9062 19.9688 32.9062 19.7578 32.9062L19.3359 33.0469L19.6172 29.25C19.6172 28.8984 19.4063 28.6172 19.0547 28.5469C19.0547 28.5469 18.7734 28.4766 18.3516 28.3359C17.6484 28.125 16.3125 27.4219 15.4688 26.5078L16.1719 26.2266C16.9453 26.7891 18.2109 27.5625 18.6328 27.7031C18.9844 27.7734 19.1953 27.8437 19.2656 27.8437C19.9687 27.9844 20.4609 28.6172 20.3906 29.3203L20.1797 32.2031C20.3906 32.2031 20.6719 32.3437 20.8125 32.4844C21.1641 32.7656 21.375 33.1875 21.375 33.6094V35.4375L24.2578 35.6484C24.0469 35.5078 23.6953 35.3672 23.3438 35.2969C22.7109 35.1562 22.2188 34.5937 22.2188 33.9609V26.2266L19.3359 24.8906L20.1797 24.5391L22.9219 25.8047V34.1016C22.9219 34.4531 23.1328 34.7344 23.4844 34.7344C24.3281 34.875 24.8906 35.2266 25.1719 35.7187C25.3828 36 25.4531 36.3516 25.4531 36.5625L20.6719 36.1406Z" fill="#B7DAE7"/>
</g>
<defs>
<clipPath id="clip0_748_1352">
<rect width="45" height="45" fill="white"/>
</clipPath>
</defs>
</svg>
